<svg width="70" height="70" viewBox="0 0 70 70" fill="none" xmlns="http://www.w3.org/2000/svg">
<path d="M56.6548 13.3629C53.8161 10.4961 50.439 8.21848 46.7174 6.66083C42.9958 5.10317 39.0031 4.2962 34.9687 4.28627C30.9343 4.27634 26.9377 5.06365 23.2085 6.60297C19.4792 8.14228 16.0909 10.4033 13.2382 13.256C10.3854 16.1088 8.12442 19.4971 6.5851 23.2263C5.04578 26.9555 4.25847 30.9521 4.2684 34.9866C4.27833 39.021 5.08531 43.0136 6.64296 46.7352C8.20062 50.4568 10.4783 53.834 13.345 56.6727C16.1837 59.5394 19.5609 61.8171 23.2825 63.3747C27.004 64.9324 30.9967 65.7393 35.0311 65.7493C39.0655 65.7592 43.0622 64.9719 46.7914 63.4326C50.5206 61.8933 53.9089 59.6323 56.7617 56.7795C59.6144 53.9268 61.8754 50.5384 63.4147 46.8092C64.954 43.08 65.7414 39.0834 65.7314 35.049C65.7215 31.0146 64.9145 27.0219 63.3569 23.3003C61.7992 19.5787 59.5216 16.2016 56.6548 13.3629ZM8.74991 35.0178C8.74893 32.6945 9.05697 30.3815 9.66592 28.1395C10.6694 30.2996 12.1269 32.1658 13.1181 34.382C14.3991 37.2313 17.839 36.441 19.3579 38.9375C20.706 41.1537 19.2663 43.9564 20.2753 46.2752C21.0081 47.9582 22.7362 48.326 23.9284 49.5564C25.1466 50.7979 25.1206 52.4986 25.3066 54.1174C25.5164 56.0193 25.8567 57.9045 26.3251 59.7598C26.3251 59.7734 26.3251 59.7885 26.336 59.8022C16.1054 56.2092 8.74991 46.457 8.74991 35.0178ZM34.9999 61.2678C33.5339 61.2673 32.0705 61.1448 30.6249 60.9014C30.64 60.5309 30.6468 60.185 30.6837 59.9443C31.0159 57.7705 32.1042 55.6445 33.5726 54.0176C35.0232 52.4125 37.011 51.327 38.236 49.5059C39.4364 47.7285 39.796 45.3359 39.3011 43.2592C38.5724 40.1912 34.4038 39.1672 32.1562 37.5033C30.8642 36.5463 29.7144 35.067 28.0177 34.9467C27.2357 34.892 26.5808 35.0602 25.8056 34.8605C25.0946 34.676 24.5368 34.2932 23.7794 34.393C22.3644 34.5789 21.4716 36.091 19.9513 35.8859C18.5089 35.6932 17.0228 34.0047 16.6946 32.6307C16.2735 30.8643 17.6708 30.2914 19.1679 30.1342C19.7927 30.0686 20.4941 29.9975 21.0942 30.2271C21.8845 30.5197 22.2577 31.2936 22.9673 31.6846C24.2976 32.4146 24.5669 31.2484 24.3632 30.0672C24.0583 28.298 23.7028 27.5775 25.2806 26.3594C26.3743 25.5199 27.3095 24.9129 27.1345 23.4049C27.0306 22.5189 26.5452 22.1184 26.9978 21.2365C27.3409 20.5652 28.2829 19.9596 28.8968 19.559C30.4814 18.5254 35.6849 18.602 33.5589 15.709C32.9341 14.86 31.7816 13.3424 30.6878 13.1346C29.3206 12.8762 28.7136 14.402 27.7607 15.0746C26.7763 15.7705 24.8595 16.5607 23.8737 15.4848C22.5476 14.0369 24.7528 13.5625 25.2409 12.5508C25.4665 12.0791 25.2409 11.4242 24.8608 10.8076C25.3539 10.5998 25.8552 10.407 26.3648 10.2293C26.6841 10.4651 27.0629 10.6072 27.4585 10.6395C28.3732 10.6996 29.2358 10.2047 30.0343 10.8281C30.9202 11.5117 31.5587 12.3758 32.7345 12.5891C33.872 12.7955 35.0765 12.1324 35.3581 10.9676C35.529 10.2594 35.3581 9.51153 35.1941 8.78008C40.3074 8.8095 45.2993 10.3408 49.5495 13.1838C49.2761 13.0799 48.9493 13.0922 48.546 13.2795C47.7161 13.665 46.5403 14.6467 46.4433 15.6201C46.3325 16.7248 47.9622 16.8807 48.7361 16.8807C49.8982 16.8807 51.0753 16.3611 50.7007 15.0186C50.538 14.4361 50.3165 13.8305 49.9597 13.4641C50.8175 14.0593 51.6392 14.7048 52.4206 15.3973C52.4083 15.4096 52.396 15.4205 52.3837 15.4342C51.5962 16.2545 50.6816 16.9039 50.1429 17.902C49.7628 18.6047 49.3349 18.9383 48.5652 19.1201C48.1413 19.2199 47.6573 19.2568 47.3019 19.5412C46.312 20.3205 46.8753 22.1936 47.8132 22.7555C48.9986 23.465 50.7568 23.1314 51.6509 22.1184C52.3495 21.3254 52.7611 19.9486 54.0175 19.95C54.5707 19.9489 55.102 20.1654 55.4968 20.5529C56.0163 21.0916 55.9138 21.5947 56.0245 22.2674C56.22 23.4623 57.2741 22.8143 57.9153 22.2113C58.3827 23.0432 58.8045 23.8998 59.1786 24.7775C58.4732 25.7934 57.9126 26.9008 56.2159 25.7168C55.2001 25.0072 54.5753 23.9777 53.2997 23.6578C52.1855 23.3844 51.0439 23.6688 49.9433 23.8588C48.6923 24.0762 47.2089 24.1719 46.2601 25.1193C45.3427 26.0326 44.8573 27.2549 43.8812 28.1723C41.9931 29.9496 41.196 31.8897 42.4183 34.4025C43.5941 36.8184 46.0536 38.1295 48.7073 37.9572C51.3146 37.7836 54.023 36.2715 53.9478 40.06C53.9204 41.4012 54.2007 42.3295 54.6122 43.575C54.9937 44.7234 54.9677 45.8363 55.0552 47.0217C55.1384 48.4097 55.3554 49.7865 55.7032 51.1328C53.2527 54.288 50.1134 56.8413 46.5253 58.5979C42.9371 60.3544 38.9949 61.2676 34.9999 61.2678Z" fill="#FF7A42"/>
</svg>
