<svg width="70" height="52" viewBox="0 0 70 52" fill="none" xmlns="http://www.w3.org/2000/svg">
<path d="M68.8333 44.3333H1.16667C0.857247 44.3333 0.560501 44.2104 0.341709 43.9916C0.122916 43.7728 0 43.4761 0 43.1667V1.16667C0 0.857247 0.122916 0.560501 0.341709 0.341709C0.560501 0.122917 0.857247 0 1.16667 0H68.8333C69.1428 0 69.4395 0.122917 69.6583 0.341709C69.8771 0.560501 70 0.857247 70 1.16667V43.1667C70 43.4761 69.8771 43.7728 69.6583 43.9916C69.4395 44.2104 69.1428 44.3333 68.8333 44.3333Z" fill="#FF7A42"/>
<path d="M55.4167 46.6667H14.5833C14.2612 46.6667 14 46.9278 14 47.25V50.75C14 51.0722 14.2612 51.3333 14.5833 51.3333H55.4167C55.7388 51.3333 56 51.0722 56 50.75V47.25C56 46.9278 55.7388 46.6667 55.4167 46.6667Z" fill="#FF7A42"/>
</svg>
