<svg width="448" height="352" viewBox="0 0 448 352" fill="none" xmlns="http://www.w3.org/2000/svg">
<path d="M404 16H44C28.536 16 16 28.536 16 44V308C16 323.464 28.536 336 44 336H404C419.464 336 432 323.464 432 308V44C432 28.536 419.464 16 404 16Z" stroke="#FF7A42" stroke-width="32" stroke-linejoin="round"/>
<path d="M404 256H380C364.536 256 352 268.536 352 284V308C352 323.464 364.536 336 380 336H404C419.464 336 432 323.464 432 308V284C432 268.536 419.464 256 404 256Z" stroke="#FF7A42" stroke-width="32" stroke-linejoin="round"/>
<path d="M404 176H380C364.536 176 352 188.536 352 204V228C352 243.464 364.536 256 380 256H404C419.464 256 432 243.464 432 228V204C432 188.536 419.464 176 404 176Z" stroke="#FF7A42" stroke-width="32" stroke-linejoin="round"/>
<path d="M404 96H380C364.536 96 352 108.536 352 124V148C352 163.464 364.536 176 380 176H404C419.464 176 432 163.464 432 148V124C432 108.536 419.464 96 404 96Z" stroke="#FF7A42" stroke-width="32" stroke-linejoin="round"/>
<path d="M404 16H380C364.536 16 352 28.536 352 44V68C352 83.464 364.536 96 380 96H404C419.464 96 432 83.464 432 68V44C432 28.536 419.464 16 404 16Z" stroke="#FF7A42" stroke-width="32" stroke-linejoin="round"/>
<path d="M68 256H44C28.536 256 16 268.536 16 284V308C16 323.464 28.536 336 44 336H68C83.464 336 96 323.464 96 308V284C96 268.536 83.464 256 68 256Z" stroke="#FF7A42" stroke-width="32" stroke-linejoin="round"/>
<path d="M68 176H44C28.536 176 16 188.536 16 204V228C16 243.464 28.536 256 44 256H68C83.464 256 96 243.464 96 228V204C96 188.536 83.464 176 68 176Z" stroke="#FF7A42" stroke-width="32" stroke-linejoin="round"/>
<path d="M68 96H44C28.536 96 16 108.536 16 124V148C16 163.464 28.536 176 44 176H68C83.464 176 96 163.464 96 148V124C96 108.536 83.464 96 68 96Z" stroke="#FF7A42" stroke-width="32" stroke-linejoin="round"/>
<path d="M68 16H44C28.536 16 16 28.536 16 44V68C16 83.464 28.536 96 44 96H68C83.464 96 96 83.464 96 68V44C96 28.536 83.464 16 68 16Z" stroke="#FF7A42" stroke-width="32" stroke-linejoin="round"/>
<path d="M324 16H124C108.536 16 96 28.536 96 44V148C96 163.464 108.536 176 124 176H324C339.464 176 352 163.464 352 148V44C352 28.536 339.464 16 324 16Z" stroke="#FF7A42" stroke-width="32" stroke-linejoin="round"/>
<path d="M324 176H124C108.536 176 96 188.536 96 204V308C96 323.464 108.536 336 124 336H324C339.464 336 352 323.464 352 308V204C352 188.536 339.464 176 324 176Z" stroke="#FF7A42" stroke-width="32" stroke-linejoin="round"/>
</svg>
