<svg width="1440" height="407" viewBox="0 0 1440 407" fill="none" xmlns="http://www.w3.org/2000/svg">
<g filter="url(#filter0_b)">
<path d="M734.717 337.159C624.184 386.844 322.495 456.403 0 337.159V-5H1444V269.551C1458.58 271.932 1480.63 276.441 1444 269.67V271.5C1430.38 267.959 1432.95 267.892 1439.94 268.918C1424.94 266.132 1401.69 261.758 1366.9 255.128C1261.21 240.123 986.791 235.521 734.717 337.159Z" fill="black" fill-opacity="0.8"/>
<path d="M1366.58 257.102C1396.32 262.771 1417.63 266.79 1432.56 269.577C1432.75 269.873 1432.97 270.057 1433.07 270.139C1433.21 270.249 1433.35 270.333 1433.46 270.392C1433.67 270.511 1433.91 270.616 1434.14 270.71C1434.6 270.899 1435.24 271.118 1436.04 271.367C1437.65 271.87 1440.08 272.548 1443.5 273.436L1446 274.087V272.073C1453.76 273.503 1458.55 274.363 1461.16 274.814C1462.56 275.054 1463.41 275.192 1463.74 275.225C1463.78 275.229 1463.88 275.24 1464 275.24L1464 275.24C1464.03 275.241 1464.24 275.243 1464.49 275.184L1464.5 275.182C1464.57 275.165 1465.1 275.045 1465.52 274.563C1465.73 274.279 1466 273.574 1466.02 273.172C1465.98 272.829 1465.78 272.278 1465.65 272.072C1465.41 271.732 1465.12 271.559 1465.06 271.522L1465.05 271.519C1464.95 271.457 1464.86 271.417 1464.82 271.398C1464.72 271.358 1464.65 271.332 1464.61 271.322C1464.54 271.297 1464.47 271.278 1464.42 271.267C1464.24 271.22 1463.96 271.156 1463.62 271.085C1461.03 270.543 1452.98 269.024 1446 267.855V267.851V-5V-7H1444H0H-2V-5V337.159V338.552L-0.693615 339.035C322.344 458.48 624.551 388.858 735.501 338.999C987.117 237.558 1261.09 242.137 1366.58 257.102ZM1464.14 271.246C1464.15 271.246 1464.15 271.247 1464.15 271.246C1464.14 271.246 1464.14 271.246 1464.14 271.246Z" stroke="white" stroke-width="4"/>
</g>
<defs>
<filter id="filter0_b" x="-19" y="-24" width="1502.02" height="446" filterUnits="userSpaceOnUse" color-interpolation-filters="sRGB">
<feFlood flood-opacity="0" result="BackgroundImageFix"/>
<feGaussianBlur in="BackgroundImage" stdDeviation="7.5"/>
<feComposite in2="SourceAlpha" operator="in" result="effect1_backgroundBlur"/>
<feBlend mode="normal" in="SourceGraphic" in2="effect1_backgroundBlur" result="shape"/>
</filter>
</defs>
</svg>
